<?xml version="1.0" encoding="utf-8"?>
<!-- Generator: Adobe Illustrator 24.0.2, SVG Export Plug-In . SVG Version: 6.00 Build 0)  -->
<svg version="1.0" xmlns="http://www.w3.org/2000/svg" xmlns:xlink="http://www.w3.org/1999/xlink" x="0px" y="0px"
	 viewBox="0 0 32 32" style="enable-background:new 0 0 32 32;" xml:space="preserve">
<style type="text/css">
	.st0{fill:#CDCCCC;stroke:#030303;stroke-linejoin:round;stroke-miterlimit:10;}
	.st1{fill:#F2F2F2;stroke:#000000;stroke-linejoin:round;stroke-miterlimit:10;}
	.st2{fill:#F7B339;stroke:#010202;stroke-miterlimit:10;}
	.st3{fill:none;stroke:#000000;stroke-linecap:round;stroke-linejoin:round;stroke-miterlimit:10;}
	.st4{fill:#4A9FD8;stroke:#010202;stroke-linejoin:round;stroke-miterlimit:10;}
	.st5{fill:#EA5730;stroke:#010202;stroke-linejoin:round;stroke-miterlimit:10;}
	.st6{fill:#F2F2F2;stroke:#010202;stroke-linecap:round;stroke-linejoin:round;stroke-miterlimit:10;}
	.st7{fill:none;stroke:#010202;stroke-miterlimit:10;}
	.st8{fill:#4A9FD8;stroke:#030303;stroke-linejoin:round;stroke-miterlimit:10;}
</style>
<g id="hoja">
	<path class="st0" d="M3.25,28.01h23.52V11.43H1.55V26.3C1.55,27.24,2.31,28.01,3.25,28.01z"/>
	<path class="st1" d="M5.53,7.29v16.56c0,0-4-0.37-3.98,2.45l0-17.32C1.55,8.98,1.48,6.52,5.53,7.29z"/>
</g>
<g id="regla">
	<path class="st2" d="M12.24,22.74h-2.2c-0.25,0-0.46-0.21-0.46-0.46V6.99c0-0.25,0.21-0.46,0.46-0.46h2.2
		c0.25,0,0.46,0.21,0.46,0.46v15.29C12.7,22.53,12.5,22.74,12.24,22.74z"/>
	<line class="st3" x1="9.58" y1="8.67" x2="10.82" y2="8.66"/>
	<line class="st3" x1="9.61" y1="11.05" x2="10.85" y2="11.04"/>
	<line class="st3" x1="9.62" y1="13.45" x2="10.85" y2="13.43"/>
	<line class="st3" x1="9.67" y1="15.95" x2="10.9" y2="15.93"/>
	<line class="st3" x1="9.7" y1="18.33" x2="10.94" y2="18.31"/>
	<line class="st3" x1="9.7" y1="20.72" x2="10.94" y2="20.7"/>

	<animateTransform 
    	attributeType="XML" 
        attributeName="transform" 
        type="translate"
        values="0,0; 0,-3; 0,0" 
        calcMode="linear" 
        dur="3s" 
        repeatCount="indefinite" />	
</g>
<g id="lapiz">
	<path class="st4" d="M27.89,13.44h2.13c0,0,1.21,2.02,0,3.7l-2.13,0.09C27.89,17.23,29.01,15.46,27.89,13.44z"/>
	<path class="st5" d="M17.67,15.29l2.81-1.85l7.42,0c0,0,0.98,1.64,0,3.79h-7.42L17.67,15.29z"/>
	<path class="st6" d="M20.48,13.44c0,0,0.97,1.8,0,3.79l-1.27-0.98c-0.02-0.02-0.04-0.04-0.03-0.08c0.04-0.24,0.61-0.92-0.01-1.79
		c-0.02-0.03-0.01-0.08,0.03-0.1L20.48,13.44z"/>
	<line class="st7" x1="20.91" y1="15.29" x2="28.33" y2="15.29"/>

	<animateTransform 
    	attributeType="XML" 
        attributeName="transform" 
        type="translate"
        values="0,0; 0,0; 0,0" 
        calcMode="linear" 
        dur="3s" 
        repeatCount="indefinite" />	
	<animateTransform 
    	attributeType="XML" 
        attributeName="transform" 
        type="rotate"
        values="0;7;-3;0"
        dur="3s" 
        repeatCount="indefinite" />	
</g>
<g id="escuadra">
	<path class="st8" d="M15.04,19.62v10.77h10.97L15.04,19.62z M16.82,24.08l4.32,4.4h-4.27L16.82,24.08z">

	<animateTransform 
    	attributeType="XML" 
        attributeName="transform" 
        type="translate"
        values="0,-4; 0,1; 0,-4" 
        calcMode="linear" 
        dur="3s" 
        repeatCount="indefinite" />	

		<animateTransform 
    	attributeType="XML" 
        attributeName="transform" 
        type="rotate"
        values="1;0;-3;0"
        dur="3s" 
        repeatCount="indefinite" />	
	</path>
</g>
</svg>
