<?xml version="1.0" encoding="utf-8"?>
<!-- Generator: Adobe Illustrator 24.0.2, SVG Export Plug-In . SVG Version: 6.00 Build 0)  -->
<svg version="1.0" xmlns="http://www.w3.org/2000/svg" xmlns:xlink="http://www.w3.org/1999/xlink" x="0px" y="0px"
	 viewBox="0 0 32 32" style="enable-background:new 0 0 32 32;" xml:space="preserve">
<style type="text/css">
	.st0{fill:#F2F2F2;stroke:#000000;stroke-miterlimit:10;}
	.st1{fill:#CDCCCC;stroke:#000000;stroke-miterlimit:10;}
	.st2{fill:#4A9FD8;stroke:#000000;stroke-miterlimit:10;}
	.st3{fill:#EA5730;stroke:#000000;stroke-miterlimit:10;}
	.st4{fill:#F7B339;stroke:#000000;stroke-miterlimit:10;}
	.st5{fill:none;stroke:#000000;stroke-miterlimit:10;}
</style>
<g id="Compu">
	<path class="st0" d="M24.16,28.71H1.54V13.56c0-0.42,0.34-0.75,0.75-0.75H23.4c0.42,0,0.75,0.34,0.75,0.75V28.71z"/>
	<path class="st1" d="M3.22,30.97h25.32c0.82,0,1.49-0.67,1.49-1.49v-0.77H1.54v0.58C1.54,30.22,2.29,30.97,3.22,30.97z"/>
	<path class="st0" d="M9.09,30.97h19.45c0.82,0,1.49-0.67,1.49-1.49v-0.77H7.41v0.58C7.41,30.22,8.16,30.97,9.09,30.97z"/>
	<path class="st2" d="M21.89,27.08H3.81c-0.33,0-0.59-0.26-0.59-0.59V14.96c0-0.33,0.26-0.59,0.59-0.59h18.08
		c0.33,0,0.59,0.26,0.59,0.59v11.53C22.48,26.82,22.22,27.08,21.89,27.08z"/>
</g>
<g id="Capa_4">
	<path class="st3" d="M8.72,17.58h9.75l-0.01,5.67c0,0-0.26,1.17-0.58,1.21c0,0-1.02,0.9-1.51,0.81c0,0-0.63,0.1-1.28-0.66
		s-0.77-0.52-0.77-0.52s-1.09,0.02-1.26,0.65c0,0-0.14,0.38-0.94,0.37c0,0-0.54,0.28-1.28-0.49s-1.49-0.36-1.49-0.36
		s-0.37,0.39-0.86,0.36c-0.49-0.03-0.86-0.52-0.86-0.89c0-0.37,0-5.22,0-5.22S7.54,17.63,8.72,17.58z"/>
</g>
<g id="Rodillo">
	<path class="st4" d="M13.54,11.36h-1.01c-0.39,0-0.7-0.32-0.7-0.7V4.89c0-0.39,0.32-0.7,0.7-0.7h1.01c0.39,0,0.7,0.32,0.7,0.7v5.76
		C14.25,11.04,13.93,11.36,13.54,11.36z"/>
	<path class="st3" d="M19.28,22.01H8.69c-0.63,0-1.14-0.51-1.14-1.14V18.6c0-0.63,0.51-1.14,1.14-1.14h10.59
		c0.63,0,1.14,0.51,1.14,1.14v2.27C20.42,21.5,19.91,22.01,19.28,22.01z"/>
	<path class="st1" d="M8.66,22.01L8.66,22.01c-0.55,0-1-0.45-1-1v-2.43c0-0.55,0.45-1,1-1h0c0.55,0,1,0.45,1,1v2.43
		C9.66,21.56,9.21,22.01,8.66,22.01z"/>
	<path class="st5" d="M12.79,11.36l0.04,4.02c0,0,0.19,0.87-0.76,0.87s-5.47,0-5.47,0s-0.96-0.05-1.01,0.67
		c-0.05,0.72,0,2.36,0,2.36s0.29,0.59,0.92,0.61c0.63,0.02,1.4,0,1.4,0"/>

	<animateTransform 
    	attributeType="XML" 
        attributeName="transform" 
        type="translate"
        values="0,0; 0,-2; 0,0" 
        
        calcMode="linear" 
        dur="4s" 
        repeatCount="indefinite" />	
</g>
</svg>
