<?xml version="1.0" encoding="utf-8"?>
<!-- Generator: Adobe Illustrator 24.0.2, SVG Export Plug-In . SVG Version: 6.00 Build 0)  -->
<svg version="1.1" id="Capa_1" xmlns="http://www.w3.org/2000/svg" xmlns:xlink="http://www.w3.org/1999/xlink" x="0px" y="0px"
	 viewBox="0 0 1500 1250" style="enable-background:new 0 0 1500 1250;" xml:space="preserve">
<style type="text/css">
	.st0{fill:#FFFFFF;stroke:#1C1C1C;stroke-width:3;stroke-miterlimit:10;}
	.st1{fill-rule:evenodd;clip-rule:evenodd;fill:#757575;}
	.st2{fill:#3F3F3F;}
</style>
<g id="body_1_">
	<g id="Shape_xA0_Imagen_1_">
		<path class="st0" d="M1405,1164.1H95c-29.3,0-53.1-23.8-53.1-53.1V133.8c0-29.3,23.8-53.1,53.1-53.1h1310
			c29.3,0,53.1,23.8,53.1,53.1V1111C1458.1,1140.4,1434.3,1164.1,1405,1164.1z"/>
	</g>
</g>
<g id="Capa_2_1_">
</g>
<g id="front_camera_1_">
	<g id="Shape_5">
		<g>
			<ellipse class="st1" cx="76.9" cy="626.5" rx="11.2" ry="12.6"/>
		</g>
	</g>
	<g id="Shape_5_copy_xA0_Imagen_1_">
		
			<image style="overflow:visible;enable-background:new    ;" width="18" height="22" id="Shape_5_copy_xA0_Imagen" xlink:href="2C1A04CCE40327FC.png"  transform="matrix(0.8187 0 0 0.9147 69.5126 616.4028)">
		</image>
	</g>
</g>
<path class="st2" d="M1367.5,1120.4H145.9c-22.3,0-40.4-18.1-40.4-40.4V172c0-22.3,18.1-40.4,40.4-40.4h1221.6
	c22.3,0,40.4,18.1,40.4,40.4v908C1407.9,1102.3,1389.8,1120.4,1367.5,1120.4z"/>
</svg>
