<?xml version="1.0" encoding="utf-8"?>
<!-- Generator: Adobe Illustrator 24.0.2, SVG Export Plug-In . SVG Version: 6.00 Build 0)  -->
<svg version="1.1" id="Capa_1" xmlns="http://www.w3.org/2000/svg" xmlns:xlink="http://www.w3.org/1999/xlink" x="0px" y="0px"
	 viewBox="0 0 2500 1500" style="enable-background:new 0 0 2500 1500;" xml:space="preserve">
<style type="text/css">
	.st0{fill-rule:evenodd;clip-rule:evenodd;fill:#757575;stroke:#020101;}
	.st1{fill:#FFF9F6;stroke:#020101;stroke-width:5;}
	.st2{fill:#444444;}
	.st3{fill-rule:evenodd;clip-rule:evenodd;fill:#757575;}
</style>
<g id="keypad_1_">
	<g id="Shape_3">
		<g>
			<path class="st0" d="M2490.7,1361.1H20.6c-18.6,0,9.7,9.9,59.3,21.2c45.7,10.4,176.9,18.3,193,18.3h1965.5
				c16.1,0,147.3-7.9,193-18.3C2481,1370.9,2509.3,1361.1,2490.7,1361.1z"/>
		</g>
	</g>
	<g id="Shape_2_xA0_Imagen_1_">
		
			<image style="overflow:visible;enable-background:new    ;" width="2065" height="33" id="Shape_2_xA0_Imagen" xlink:href="1B2E5F11B69DA552.png"  transform="matrix(1.1948 0 0 1.1948 22.5885 1325.2186)">
		</image>
	</g>
	<g id="Shape_5_xA0_Imagen_1_">
		
			<image style="overflow:visible;enable-background:new    ;" width="363" height="33" id="Shape_5_xA0_Imagen" xlink:href="1B2E5F11B69DA551.png"  transform="matrix(1.1224 0 0 1.1224 1042.9453 1326.4135)">
		</image>
	</g>
</g>
<path class="st1" d="M2096.5,1330.1H414.7c-49.3,0-89.2-39.9-89.2-89.2V182.6c0-49.3,39.9-89.2,89.2-89.2h1681.7
	c49.3,0,89.2,39.9,89.2,89.2v1058.3C2185.7,1290.2,2145.7,1330.1,2096.5,1330.1z"/>
<path class="st1" d="M2483.7,1358.6H29.7c-0.8,0-1.5-0.7-1.5-1.5v-22c0-2.8,2.2-5,5-5h2450.6c1.5,0,2.6,1.2,2.6,2.6v23.2
	C2486.3,1357.4,2485.2,1358.6,2483.7,1358.6z"/>
<path class="st1" d="M1423.6,1357.8h-357c-11.2,0-20.3-9.1-20.3-20.3v-7.4h399.9v5.2C1446.1,1347.7,1436,1357.8,1423.6,1357.8z"/>
<rect x="407.7" y="186.8" class="st2" width="1696.4" height="1080.1"/>
<g id="camera_1_">
	<g id="Ellipse_1">
		<g>
			<path class="st3" d="M1246.7,123.2c-7.3,0-13.1,5.9-13.1,13.2s5.9,13.2,13.1,13.2s13.1-5.9,13.1-13.2S1253.9,123.2,1246.7,123.2z
				"/>
		</g>
	</g>
	<g id="Ellipse_1_copy_xA0_Imagen_1_">
		
			<image style="overflow:visible;enable-background:new    ;" width="18" height="18" id="Ellipse_1_copy_xA0_Imagen" xlink:href="1B2E5F11B69DA54E.png"  transform="matrix(1.062 0 0 1.062 1237.0996 126.8372)">
		</image>
	</g>
</g>
</svg>
