<?xml version="1.0" encoding="utf-8"?>
<!-- Generator: Adobe Illustrator 24.0.2, SVG Export Plug-In . SVG Version: 6.00 Build 0)  -->
<svg version="1.1" id="iphone5_vertical" xmlns="http://www.w3.org/2000/svg" xmlns:xlink="http://www.w3.org/1999/xlink" x="0px"
	 y="0px" viewBox="0 0 1000 1800" style="enable-background:new 0 0 1000 1800;" xml:space="preserve">
<style type="text/css">
	.st0{fill-rule:evenodd;clip-rule:evenodd;fill:#FFFFFF;stroke:#000000;stroke-width:5;stroke-linejoin:round;}
	.st1{fill-rule:evenodd;clip-rule:evenodd;fill:#FFFFFF;stroke:#000000;stroke-width:4;stroke-miterlimit:10;}
	.st2{display:none;}
	.st3{display:inline;fill:#FFFFFF;fill-opacity:0.75;}
	.st4{display:inline;}
	.st5{fill:#F9F9F9;fill-opacity:0.78;}
	.st6{fill:#3C3C43;fill-opacity:0.6;}
	.st7{fill:#383838;}
</style>
<g id="panel">
	<path id="frame" class="st0" d="M174.5,34.2h662.1c74.3,0,134.6,52.9,134.6,118.2v1492.2c0,65.3-60.3,118.3-134.6,118.2H174.5
		c-74.3,0-134.6-52.9-134.6-118.2l0,0V152.5C39.9,87.1,100.2,34.2,174.5,34.2L174.5,34.2z"/>
	<g id="side_buttons">
		<path class="st1" d="M39.9,346.6h-5.5c-3,0-5.5-2.1-5.5-4.8v-65.4c0-2.7,2.5-4.8,5.5-4.8h5.5V346.6L39.9,346.6z"/>
		<path id="Shape_10_copy_3" class="st1" d="M666.5,35.3v-4.9c-0.1-2.6,2.3-4.8,5.3-4.9H808c3,0.1,5.4,2.2,5.3,4.9v4.9H666.5z"/>
		<path id="Shape_10_copy" class="st1" d="M39.9,494h-5.5c-3,0-5.5-2.1-5.5-4.8l0,0v-50.1c0-2.7,2.5-4.8,5.5-4.8l0,0h5.5V494
			L39.9,494z"/>
		<path id="Shape_10_copy_2" class="st1" d="M39.9,640.4h-5.5c-3,0-5.5-2.1-5.5-4.8l0,0v-50.1c0-2.7,2.5-4.8,5.5-4.8l0,0h5.5V640.4
			L39.9,640.4z"/>
	</g>
</g>
<g id="Focus" class="st2">
	<path class="st3" d="M176.6,598.8h675.5c41.6,0,75.3,29.5,75.3,66v663.7c0,36.4-33.7,66-75.3,66H176.6c-41.6,0-75.3-29.5-75.3-66
		V664.8C101.3,628.3,135.1,598.8,176.6,598.8z"/>
	<g class="st4">
		<path class="st5" d="M841.1,645.4L841.1,645.4c18.3,0,33.2,13,33.2,29.1l0,0c0,16.1-14.9,29.1-33.2,29.1l0,0
			c-18.3,0-33.2-13-33.2-29.1l0,0C807.9,658.4,822.8,645.4,841.1,645.4z"/>
		<path class="st6" d="M830.6,682.1c-0.7,0.6-0.7,1.7,0,2.3c0.7,0.6,2,0.6,2.6,0l8.3-7.3l8.3,7.3c0.7,0.6,1.9,0.6,2.6,0
			c0.7-0.6,0.7-1.7,0-2.3l-8.3-7.3l8.3-7.3c0.7-0.6,0.7-1.7,0-2.3c-0.7-0.6-1.9-0.6-2.6,0l-8.3,7.3l-8.3-7.3c-0.7-0.6-1.9-0.6-2.6,0
			c-0.7,0.6-0.7,1.7,0,2.3l8.3,7.3L830.6,682.1z"/>
	</g>
</g>
<path class="st7" d="M853.9,1716H157.2c-44.8,0-81.2-36.3-81.2-81.2V153.7c0-44.8,36.3-81.2,81.2-81.2h696.8
	c44.8,0,81.2,36.3,81.2,81.2v1481.1C935.1,1679.6,898.8,1716,853.9,1716z"/>
</svg>
